<svg xmlns="http://www.w3.org/2000/svg" width="113" height="54" viewBox="0 0 113 54" fill="none">
  <path d="M74.7285 23.7116C74.8688 25.0332 75.4981 25.8758 76.6164 26.2395C79.8702 27.3005 83.1993 25.9302 85.6671 23.8598C86.5691 23.1016 86.5799 22.1158 86.32 21.0269C86.3125 20.994 86.2965 20.9638 86.2735 20.9392C86.2506 20.9145 86.2215 20.8963 86.1892 20.8863C86.1569 20.8764 86.1224 20.8749 86.0892 20.8823C86.056 20.8896 86.0253 20.9054 86 20.9281C84.8287 21.9848 83.4964 22.8338 82.003 23.4753C79.8767 25.7734 77.9866 24.273 76.6164 23.0788C76.5724 23.0404 76.54 22.9904 76.5229 22.9344C76.5058 22.8785 76.5046 22.819 76.5196 22.7625C76.5346 22.7059 75.5515 22.3286 75.594 22.2885C75.6365 22.2483 76.703 22.5471 76.7603 22.5354C79.6018 21.9749 76.5326 23.7094 76.6164 20.1892C76.6493 18.7488 77.43 18.7468 78.3088 18.1488C79.956 17.0281 82.2149 14.5728 80.972 14.6415C84.7349 11.9124 88.9696 10.6968 93.6761 10.9946C102.186 11.5359 110.287 17.0621 111.994 25.7004C113.683 34.2421 108.178 41.8151 100.222 44.3946C99.707 44.5621 98.9596 44.9974 97.9802 45.7004C96.5813 46.7055 94.5774 47.778 91.9686 48.9177C89.6862 49.9157 87.4898 50.5758 85.3793 50.898C85.2547 50.918 85.2425 50.8887 85.3427 50.8099C87.2743 49.3165 88.3489 47.3398 88.5665 44.8799C88.5696 44.8475 88.5611 44.8152 88.5426 44.7887C88.5241 44.7623 88.4967 44.7436 88.4656 44.736C81.3221 42.9019 75.5189 37.453 74.213 30.0625C74.0004 28.8533 74.0734 27.483 74.0927 26.2094C74.1042 25.4061 74.3161 24.5735 74.7285 23.7116ZM86.4746 30.447C85.6262 32.2017 83.8178 33.1939 81.8999 32.6033C79.969 32.0084 79.0047 30.2665 78.4269 28.4044C78.4231 28.3924 78.4157 28.3818 78.4059 28.3738C78.396 28.3659 78.384 28.3611 78.3714 28.36C78.3588 28.3588 78.3462 28.3614 78.335 28.3674C78.3239 28.3734 78.3148 28.3825 78.3088 28.3937L77.6301 29.7317C77.5956 29.801 77.5879 29.8813 77.6086 29.9573C78.3446 32.4931 79.8674 33.9407 82.1769 34.3001C85.1516 34.764 87.5528 33.2949 88.3969 30.3868C88.4051 30.3602 88.4216 30.3368 88.444 30.3202C88.4664 30.3036 88.4935 30.2946 88.5214 30.2945L93.6696 30.2601C93.706 30.2599 93.7411 30.2465 93.7683 30.2224C93.7956 30.1983 93.8131 30.1652 93.8178 30.1291C94.1343 27.7651 93.7491 25.5422 92.6623 23.4603C92.6543 23.4456 92.643 23.4329 92.6294 23.4231C92.6158 23.4134 92.6001 23.4068 92.5836 23.4039C92.5671 23.4011 92.5502 23.4019 92.5341 23.4065C92.518 23.411 92.5031 23.4191 92.4905 23.4302L91.1546 24.648C91.1287 24.6713 91.1126 24.7036 91.1094 24.7386C91.1062 24.7736 91.1162 24.8087 91.1374 24.837C91.9421 25.8708 92.3309 27.0542 92.3036 28.3873C92.3036 28.406 92.296 28.4241 92.2823 28.4374C92.2686 28.4507 92.25 28.4581 92.2306 28.4581H83.7491C83.7357 28.458 83.7225 28.4608 83.7103 28.4662C83.698 28.4716 83.6871 28.4795 83.6782 28.4895C83.6692 28.4994 83.6625 28.5112 83.6585 28.5239C83.6544 28.5366 83.6531 28.5501 83.6546 28.5634C83.7126 29.0939 83.8114 30.3976 84.5996 30.2837C84.9619 30.2307 85.5675 30.2494 86.4166 30.3396C86.4284 30.3406 86.4398 30.3446 86.4496 30.3511C86.4595 30.3577 86.4677 30.3666 86.4734 30.3772C86.4791 30.3878 86.4822 30.3996 86.4824 30.4118C86.4826 30.4239 86.4799 30.436 86.4746 30.447ZM99.2001 28.4087C98.8994 27.0535 98.6482 25.7111 98.0274 24.4547C98.0218 24.4438 98.0138 24.4344 98.0041 24.427C97.9943 24.4197 97.9831 24.4147 97.9713 24.4124C97.9594 24.4101 97.9473 24.4106 97.9358 24.4139C97.9243 24.4171 97.9138 24.423 97.905 24.4311L96.6443 25.6231C96.6206 25.6454 96.6046 25.6748 96.5988 25.7069C96.593 25.739 96.5977 25.7721 96.6121 25.8013C97.9093 28.398 98.6481 32.6806 94.5266 33.2219C94.4264 33.2362 94.4135 33.2777 94.4879 33.3464L95.5554 34.3301C95.581 34.3544 95.6123 34.3719 95.6465 34.3809C95.6807 34.3899 95.7165 34.3902 95.7508 34.3817C97.7941 33.8805 98.9503 32.5811 99.2195 30.4835C99.2247 30.4432 99.2443 30.4062 99.2747 30.3794C99.3051 30.3525 99.3443 30.3376 99.3848 30.3374H108.597C108.624 30.3374 108.651 30.3269 108.67 30.308C108.69 30.2891 108.701 30.2635 108.702 30.2365L108.732 28.6793C108.732 28.6662 108.73 28.6531 108.725 28.6409C108.72 28.6286 108.713 28.6175 108.704 28.6081C108.695 28.5987 108.684 28.5912 108.671 28.5861C108.659 28.581 108.646 28.5784 108.633 28.5784C107.661 28.5813 106.69 28.5669 105.721 28.5354C104.359 28.4925 103.652 27.264 104.02 26.0548C104.499 24.474 106.275 24.648 107.609 24.7038C107.626 24.7047 107.644 24.702 107.66 24.6959C107.676 24.6899 107.691 24.6805 107.704 24.6684C107.717 24.6564 107.727 24.6419 107.734 24.6258C107.74 24.6097 107.744 24.5924 107.744 24.575V23.718C107.744 23.6826 107.731 23.6483 107.709 23.6212C107.686 23.5941 107.654 23.5759 107.619 23.5698C105.994 23.2863 104.284 23.3271 103 24.4053C101.775 25.4341 101.891 27.1566 102.686 28.413C102.729 28.4818 102.71 28.5154 102.63 28.514L99.3268 28.5097C99.2975 28.5095 99.269 28.4994 99.246 28.4811C99.223 28.4628 99.2069 28.4373 99.2001 28.4087ZM91.7187 32.0313C91.667 31.9791 91.5967 31.9495 91.5232 31.9491C91.4497 31.9487 91.3791 31.9776 91.3268 32.0292L90.6063 32.7423C90.554 32.794 90.5245 32.8643 90.5241 32.9378C90.5237 33.0113 90.5525 33.0819 90.6042 33.1341L91.3294 33.8669C91.381 33.9191 91.4514 33.9487 91.5248 33.9491C91.5983 33.9495 91.6689 33.9207 91.7212 33.869L92.4417 33.1559C92.494 33.1042 92.5235 33.0339 92.5239 32.9604C92.5243 32.8869 92.4955 32.8163 92.4438 32.7641L91.7187 32.0313ZM82.9523 36.3984C82.9464 36.4047 82.9394 36.4098 82.9315 36.4133C82.9236 36.4169 82.9152 36.4188 82.9066 36.419C82.8979 36.4192 82.8894 36.4177 82.8814 36.4145C82.8734 36.4113 82.8661 36.4066 82.8599 36.4006L81.9128 35.4641C81.9007 35.4523 81.8845 35.4457 81.8677 35.4457C81.8508 35.4457 81.8346 35.4523 81.8226 35.4641L80.7938 36.45C80.7876 36.456 80.7827 36.4631 80.7793 36.4711C80.776 36.479 80.7743 36.4875 80.7743 36.4961C80.7743 36.5047 80.776 36.5133 80.7793 36.5212C80.7827 36.5291 80.7876 36.5363 80.7938 36.5423L81.8462 37.5947C81.8582 37.6065 81.8744 37.6131 81.8913 37.6131C81.9081 37.6131 81.9243 37.6065 81.9364 37.5947L82.8771 36.6519C82.8833 36.6458 82.8905 36.6411 82.8986 36.6379C82.9066 36.6348 82.9151 36.6332 82.9237 36.6334C82.9323 36.6336 82.9408 36.6355 82.9487 36.6391C82.9565 36.6426 82.9636 36.6477 82.9695 36.654L83.8694 37.6205C83.8752 37.6268 83.8823 37.6319 83.8901 37.6354C83.898 37.6389 83.9065 37.6409 83.9151 37.6411C83.9237 37.6413 83.9323 37.6397 83.9403 37.6366C83.9483 37.6334 83.9556 37.6287 83.9617 37.6226L85.0141 36.5724C85.0259 36.5603 85.0326 36.5441 85.0326 36.5273C85.0326 36.5104 85.0259 36.4942 85.0141 36.4822L83.9703 35.4448C83.9642 35.4388 83.9569 35.434 83.9489 35.4309C83.9409 35.4277 83.9323 35.4262 83.9237 35.4264C83.9151 35.4266 83.9066 35.4285 83.8987 35.432C83.8909 35.4356 83.8838 35.4406 83.878 35.447L82.9523 36.3984Z" fill="#6CBC2E"/>
  <path d="M34.9372 0.109536C34.9562 0.0761908 34.9837 0.0484834 35.0169 0.0292401C35.0501 0.00999681 35.0878 -9.22637e-05 35.1262 6.35804e-07H38.0901C38.1143 -2.8444e-05 38.1379 0.00695683 38.1582 0.0201097C38.1784 0.0332626 38.1944 0.0520149 38.2042 0.0740857C38.214 0.0961565 38.2171 0.120595 38.2133 0.144428C38.2094 0.168262 38.1987 0.190465 38.1825 0.208334C36.9626 1.53995 35.8314 2.90664 34.789 4.30842C34.5542 4.62486 34.1461 5.04152 33.5648 5.55842C33.5054 5.61095 33.4282 5.63998 33.3479 5.64003L31.8273 5.63359C31.7471 5.63359 31.727 5.59923 31.7671 5.5305L34.9372 0.109536Z" fill="#0C6746"/>
  <path d="M80.9719 14.6414C82.2147 14.5727 83.0294 14.5806 83.416 14.665C84.8092 14.9729 85.4893 15.847 85.4564 17.2875C85.3726 20.8076 80.8774 22.2381 78.0359 22.7986C77.9786 22.8103 77.9257 22.8377 77.8832 22.8778C77.8406 22.9179 77.8102 22.9691 77.7952 23.0256C77.7802 23.0822 77.7814 23.1417 77.7985 23.1976C77.8156 23.2535 77.8479 23.3035 77.892 23.342C79.2622 24.5362 80.3748 24.1753 82.0028 23.4752C83.4962 22.8337 84.8285 21.9846 85.9998 20.9279C86.0251 20.9052 86.0559 20.8895 86.0891 20.8821C86.1222 20.8748 86.1567 20.8762 86.189 20.8862C86.2213 20.8962 86.2504 20.9144 86.2733 20.939C86.2963 20.9637 86.3123 20.9939 86.3198 21.0267C86.5797 22.1156 86.5689 23.1015 85.6669 23.8596C83.1991 25.9301 79.8701 27.3003 76.6162 26.2394C75.4979 25.8757 74.8686 25.033 74.7283 23.7114C73.4081 24.4001 72.0565 24.4796 70.6733 23.9498C70.6441 23.9391 70.6122 23.9379 70.5825 23.9464C70.5527 23.9549 70.5266 23.9727 70.5079 23.9971C69.2823 25.5821 67.7158 26.4298 65.8086 26.54C63.053 26.699 62.3786 25.3373 62.5848 22.818C62.5906 22.7464 62.5655 22.7328 62.5097 22.7771C60.7807 24.1539 57.0522 27.1113 54.7455 26.482C54.3138 26.3639 54.2386 25.5778 54.1613 25.1848C54.1484 25.1161 54.1162 25.1068 54.0646 25.1569C51.9878 27.2252 47.9285 27.2918 47.3894 23.7544C47.3779 23.6857 47.3457 23.6742 47.2927 23.72C45.6991 25.0559 43.1561 26.5937 41.2232 26.5894C39.0904 26.5851 39.3718 24.7316 39.9732 23.385C40.838 21.4434 41.7307 19.5376 42.6514 17.6676C42.666 17.6385 42.6734 17.6063 42.6728 17.5737C42.6723 17.5411 42.6639 17.5091 42.6483 17.4803C42.6328 17.4515 42.6105 17.4267 42.5834 17.4081C42.5563 17.3895 42.5251 17.3776 42.4925 17.3734C41.9083 17.2939 41.5732 17.2595 41.1716 17.76C39.7713 19.5083 38.2421 21.1377 36.584 22.6483C36.1387 23.0549 35.6697 23.4064 35.1772 23.7028C35.1603 23.7128 35.1413 23.7186 35.1218 23.7198C35.1022 23.7209 35.0827 23.7173 35.0648 23.7093C35.0469 23.7013 35.0312 23.6891 35.019 23.6738C35.0068 23.6585 34.9984 23.6404 34.9946 23.6212C34.8257 22.8137 34.8364 22.0083 35.0268 21.205C35.0422 21.1366 35.0782 21.0744 35.1299 21.0267C36.6907 19.5834 38.0359 17.9611 39.1656 16.1599C39.1814 16.1344 39.1895 16.1049 39.1887 16.0751C39.188 16.0453 39.1784 16.0165 39.1613 15.9924C38.1454 14.577 39.1098 12.3755 41.0728 12.8609C42.2176 13.1444 42.1896 14.0723 42.3872 15.0108C42.3966 15.0551 42.4224 15.0942 42.4595 15.1201C42.4966 15.146 42.5422 15.1569 42.587 15.1504C43.1025 15.0774 43.6931 14.9142 44.1484 14.9271C45.8795 14.9743 46.4229 16.5551 45.7227 18.0327C44.9667 19.6278 44.1935 21.215 43.4031 22.7943C43.3344 22.9318 43.3036 23.0857 43.3108 23.2561C43.3121 23.2933 43.3226 23.3296 43.3412 23.3619C43.3599 23.3941 43.3862 23.4212 43.4178 23.441C43.4493 23.4607 43.4853 23.4723 43.5224 23.4749C43.5596 23.4775 43.5968 23.471 43.6308 23.4558C44.9896 22.843 46.1952 22.014 47.2476 20.9687C47.302 20.9158 47.3393 20.852 47.3593 20.7776C47.7738 19.2656 48.474 18.1809 49.7476 17.1908C52.3536 15.1633 55.4142 14.3744 58.9293 14.824C59.22 14.8612 59.3746 14.9894 59.3933 15.2084C59.4534 15.88 59.4921 16.54 59.5092 17.1887C59.5102 17.2269 59.5015 17.2647 59.484 17.2987C59.4665 17.3327 59.4408 17.3617 59.4091 17.3831C59.3774 17.4045 59.3409 17.4176 59.3028 17.4211C59.2648 17.4247 59.2264 17.4186 59.1914 17.4034C56.8567 16.3811 54.3761 17.0942 52.4066 18.5546C50.8537 19.708 50.3726 20.8055 50.4865 22.7149C50.6454 25.4125 53.5728 22.6053 54.1527 21.9009C54.9732 20.9029 55.6783 19.8268 56.2683 18.6728C56.2827 18.6453 56.3054 18.6231 56.3331 18.6092C56.3609 18.5954 56.3923 18.5905 56.4229 18.5954C57.302 18.7472 58.1869 18.7895 59.0775 18.7222C59.0916 18.7207 59.1058 18.7231 59.1187 18.729C59.1315 18.7349 59.1426 18.7441 59.1507 18.7557C59.1588 18.7673 59.1637 18.7809 59.1648 18.795C59.1659 18.8091 59.1632 18.8233 59.157 18.836L57.0651 23.3442C57.0479 23.3816 57.0425 23.4234 57.0496 23.464C57.0567 23.5047 57.0759 23.5421 57.1047 23.5713C57.1335 23.6006 57.1704 23.6202 57.2106 23.6276C57.2507 23.635 57.2921 23.6298 57.3292 23.6126C59.1355 22.8008 60.9074 21.1921 62.4323 19.9271C64.215 18.4473 64.9323 17.2789 65.8022 14.9485C67.015 11.6983 68.3222 8.48735 69.724 5.31581C70.0569 4.5641 70.465 3.48592 71.1544 3.09287C71.9212 2.65473 72.8877 2.99623 73.1669 3.86178C73.5556 5.06238 71.846 8.51169 71.163 9.90774C68.799 14.7345 67.302 17.9146 66.672 19.4481C66.4744 19.9292 64.3095 25.0538 66.4594 24.2226C67.6249 23.7716 68.5062 23.1029 69.1033 22.2166C69.1406 22.16 69.1544 22.0907 69.142 22.0233C68.9071 20.7432 68.9852 19.5025 69.3761 18.3012C69.7756 17.0684 70.6132 14.7338 72.2347 14.7488C74.6703 14.7703 72.6235 20.2084 72.2476 21.2823C72.2229 21.3541 72.2177 21.4313 72.2328 21.506C72.2479 21.5807 72.2827 21.6503 72.3335 21.7076C72.7824 22.2123 73.9852 21.3854 74.5286 20.8936C74.5801 20.8476 74.6149 20.7857 74.6274 20.7174C74.8908 19.2212 75.5459 18.0206 76.5926 17.1156C77.7552 16.1119 79.215 15.2872 80.9719 14.6414ZM82.3164 17.5065C81.803 16.5937 80.6755 17.0985 80.029 17.5559C78.9036 18.3492 78.1261 19.3135 77.6965 20.449C77.6924 20.4592 77.6911 20.4703 77.6926 20.4813C77.6942 20.4922 77.6987 20.5026 77.7056 20.5114C77.7125 20.5203 77.7216 20.5273 77.732 20.5317C77.7425 20.5362 77.7539 20.538 77.7652 20.537C79.5221 20.3466 80.9454 19.7202 82.035 18.6577C82.4359 18.2668 82.5297 17.8831 82.3164 17.5065Z" fill="#0C6746"/>
  <path d="M86.4168 30.3394C85.5677 30.2492 84.962 30.2306 84.5998 30.2836C83.8116 30.3974 83.7128 29.0937 83.6548 28.5632C83.6533 28.5499 83.6546 28.5365 83.6586 28.5237C83.6627 28.511 83.6694 28.4993 83.6784 28.4893C83.6873 28.4794 83.6982 28.4714 83.7104 28.466C83.7227 28.4606 83.7359 28.4579 83.7493 28.4579H92.2308C92.2502 28.4579 92.2687 28.4505 92.2824 28.4372C92.2961 28.4239 92.3038 28.4059 92.3038 28.3871C92.331 27.054 91.9423 25.8706 91.1376 24.8368C91.1164 24.8085 91.1064 24.7734 91.1096 24.7384C91.1127 24.7035 91.1289 24.6711 91.1548 24.6478L92.4907 23.43C92.5032 23.4189 92.5181 23.4108 92.5343 23.4063C92.5504 23.4017 92.5673 23.4009 92.5838 23.4038C92.6003 23.4067 92.616 23.4132 92.6296 23.423C92.6432 23.4327 92.6545 23.4454 92.6625 23.4601C93.7493 25.542 94.1344 27.7649 93.818 30.1289C93.8133 30.165 93.7957 30.1981 93.7685 30.2222C93.7412 30.2463 93.7062 30.2597 93.6698 30.2599L88.5216 30.2943C88.4937 30.2944 88.4666 30.3034 88.4442 30.3201C88.4218 30.3367 88.4053 30.36 88.397 30.3866C87.553 33.2947 85.1518 34.7638 82.1771 34.2999C79.8675 33.9405 78.3448 32.4929 77.6088 29.9571C77.5881 29.8811 77.5958 29.8008 77.6303 29.7316L78.309 28.3935C78.315 28.3824 78.3241 28.3732 78.3352 28.3672C78.3464 28.3612 78.359 28.3587 78.3716 28.3598C78.3842 28.3609 78.3962 28.3658 78.406 28.3737C78.4159 28.3816 78.4232 28.3922 78.4271 28.4043C79.0049 30.2664 79.9692 32.0082 81.9001 32.6031C83.818 33.1938 85.6264 32.2015 86.4748 30.4468C86.4801 30.4358 86.4828 30.4238 86.4826 30.4116C86.4824 30.3995 86.4793 30.3876 86.4736 30.377C86.4679 30.3665 86.4597 30.3575 86.4498 30.351C86.4399 30.3444 86.4286 30.3404 86.4168 30.3394Z" fill="white"/>
  <path d="M99.3269 28.5095L102.63 28.5138C102.71 28.5152 102.729 28.4815 102.686 28.4128C101.891 27.1564 101.775 25.4339 103 24.4051C104.284 23.3269 105.994 23.2861 107.619 23.5696C107.654 23.5757 107.686 23.5939 107.709 23.621C107.732 23.6481 107.744 23.6824 107.744 23.7178V24.5748C107.744 24.5922 107.741 24.6095 107.734 24.6256C107.727 24.6417 107.717 24.6562 107.704 24.6682C107.691 24.6803 107.676 24.6896 107.66 24.6957C107.644 24.7018 107.626 24.7045 107.609 24.7036C106.275 24.6478 104.499 24.4738 104.02 26.0546C103.653 27.2638 104.359 28.4923 105.721 28.5352C106.69 28.5667 107.661 28.581 108.633 28.5782C108.646 28.5782 108.659 28.5808 108.672 28.5859C108.684 28.591 108.695 28.5985 108.704 28.6079C108.713 28.6173 108.72 28.6284 108.725 28.6407C108.73 28.6529 108.732 28.666 108.732 28.6791L108.702 30.2363C108.701 30.2632 108.69 30.2889 108.67 30.3078C108.651 30.3267 108.624 30.3372 108.597 30.3372H99.3849C99.3444 30.3374 99.3052 30.3523 99.2748 30.3792C99.2444 30.406 99.2248 30.443 99.2196 30.4832C98.9504 32.5809 97.7942 33.8803 95.7509 34.3814C95.7166 34.3899 95.6808 34.3897 95.6466 34.3807C95.6125 34.3717 95.5811 34.3542 95.5555 34.3299L94.488 33.3462C94.4136 33.2775 94.4265 33.236 94.5267 33.2217C98.6483 32.6804 97.9094 28.3978 96.6122 25.8011C96.5978 25.7719 96.5931 25.7388 96.5989 25.7067C96.6047 25.6746 96.6207 25.6452 96.6444 25.6229L97.9051 24.4308C97.9139 24.4228 97.9244 24.4169 97.9359 24.4136C97.9474 24.4104 97.9595 24.4099 97.9714 24.4122C97.9832 24.4145 97.9944 24.4195 98.0042 24.4268C98.0139 24.4342 98.0219 24.4436 98.0276 24.4545C98.6483 25.7109 98.8995 27.0533 99.2002 28.4085C99.207 28.4371 99.2231 28.4626 99.2461 28.4809C99.2691 28.4992 99.2976 28.5093 99.3269 28.5095Z" fill="white"/>
  <path d="M16.7865 22.7663L14.4583 23.009C14.4426 23.0107 14.4267 23.0088 14.4118 23.0036C14.3969 22.9984 14.3833 22.9899 14.372 22.9788C14.3607 22.9678 14.352 22.9543 14.3465 22.9395C14.341 22.9247 14.3389 22.9088 14.3402 22.893C14.4161 21.9165 14.6552 21.1226 15.0576 20.5112C15.4248 19.9549 17.7552 19.9248 18.3973 19.9055C18.4922 19.9029 18.5848 19.8766 18.6666 19.8289C18.7484 19.7813 18.8168 19.7138 18.8656 19.6327C20.6396 16.7118 22.7101 13.9812 25.0769 11.4412C27.826 8.49012 30.5623 6.6903 34.6559 6.91366C35.9553 6.98454 36.4751 8.52449 36.329 9.61126C36.11 11.2371 35.4936 12.7857 34.9588 14.3406C33.6551 18.125 32.6864 22.0619 31.4643 25.8849C31.4433 25.9508 31.4411 26.0222 31.4579 26.0911C31.7951 27.4549 32.2397 28.9626 30.4699 29.5296C29.9831 29.6843 29.5263 29.6607 29.0997 29.4588C27.8475 28.8638 28.1246 27.5644 28.232 26.4175C28.3093 25.6057 27.2504 24.7036 26.5503 24.2762C24.7261 23.1665 22.7315 22.573 20.5666 22.4957C20.5298 22.4944 20.4932 22.5027 20.4605 22.5196C20.4278 22.5365 20.4 22.5616 20.3797 22.5924C19.0367 24.637 17.9893 26.8227 17.2375 29.1495C17.2267 29.1849 17.2089 29.2177 17.1853 29.2461C17.1617 29.2745 17.1328 29.2979 17.1001 29.3149C16.1959 29.7981 14.8428 29.7337 13.8548 29.5919C13.8434 29.5905 13.8324 29.5864 13.8228 29.5801C13.8131 29.5737 13.8051 29.5652 13.7993 29.5552C13.7935 29.5453 13.79 29.5341 13.7892 29.5226C13.7884 29.5111 13.7903 29.4995 13.7947 29.4888C14.7383 27.2523 15.7656 25.0551 16.8767 22.8973C16.9283 22.7971 16.8982 22.7534 16.7865 22.7663ZM32.6864 9.75945C29.933 9.45232 23.8376 17.5193 22.3299 19.6843C22.3228 19.6948 22.3183 19.7068 22.3165 19.7194C22.3148 19.7319 22.3159 19.7446 22.3199 19.7565C22.3239 19.7684 22.3305 19.7791 22.3393 19.7879C22.3482 19.7966 22.3589 19.803 22.3707 19.8067C23.4489 20.1546 24.6839 20.3243 25.6009 20.6916C26.9011 21.2113 28.0716 21.9509 29.1125 22.9102C29.1208 22.9178 29.131 22.9232 29.1419 22.9258C29.1528 22.9284 29.1642 22.9282 29.1748 22.9251C29.1855 22.9221 29.195 22.9163 29.2026 22.9084C29.2101 22.9005 29.2154 22.8908 29.2178 22.8802C30.1499 19.2476 31.1866 15.6451 32.3278 12.0726C32.5468 11.3867 32.7194 10.6859 32.8454 9.96993C32.8496 9.94557 32.8488 9.92059 32.843 9.89654C32.8372 9.8725 32.8265 9.84991 32.8116 9.83017C32.7967 9.81043 32.7779 9.79397 32.7564 9.7818C32.7348 9.76964 32.711 9.76203 32.6864 9.75945Z" fill="#0C6746"/>
  <path d="M58.5474 31.7075C59.6327 30.8155 60.7202 29.9292 61.8098 29.0486C62.2236 28.7136 62.553 28.5081 62.7978 28.4322C63.4572 28.2282 64.9005 28.4429 64.4043 29.519C63.7643 30.9136 63.1228 32.3068 62.4799 33.6985C62.3955 33.8818 62.341 34.0529 62.3167 34.2118C62.3113 34.2498 62.317 34.2885 62.3332 34.3233C62.3494 34.3581 62.3753 34.3874 62.4079 34.4076C62.4404 34.4279 62.4782 34.4383 62.5166 34.4374C62.5549 34.4366 62.5922 34.4246 62.6238 34.403L65.2398 32.5989C65.2545 32.5886 65.2714 32.582 65.2892 32.5797C65.307 32.5773 65.325 32.5793 65.3419 32.5854C65.3587 32.5915 65.3739 32.6016 65.386 32.6147C65.3982 32.6279 65.4069 32.6439 65.4116 32.6612C65.7488 33.8682 65.3171 34.4717 64.2884 35.116C63.4207 35.6594 60.3579 37.4786 59.6792 36.0589C59.3313 35.3265 60.9314 32.4528 61.2793 31.6581C61.2889 31.6374 61.2909 31.614 61.2851 31.5919C61.2793 31.5698 61.2661 31.5504 61.2476 31.537C61.2291 31.5236 61.2066 31.517 61.1838 31.5183C61.161 31.5196 61.1393 31.5288 61.1225 31.5443C59.5862 32.9132 58.0956 34.3085 56.6509 35.7303C56.187 36.1878 54.9885 37.1736 54.559 36.22C54.1122 35.2213 56.2879 32.6526 56.2557 31.5099C56.2543 31.4355 56.2256 31.4226 56.1698 31.4713C54.4229 33.0263 52.7155 34.6178 51.0474 36.2458C50.678 36.6052 50.2477 36.6696 49.7566 36.4391C49.6621 36.3953 49.5868 36.3186 49.5449 36.2233C49.503 36.128 49.4973 36.0207 49.5289 35.9215L50.0895 34.1388C50.0958 34.1164 50.0943 34.0925 50.0853 34.071C50.0763 34.0495 50.0603 34.0317 50.0398 34.0205C50.0194 34.0092 49.9958 34.0053 49.9728 34.0092C49.9498 34.0132 49.9289 34.0248 49.9134 34.0422C49.239 34.8211 48.3806 35.1132 47.3382 34.9184C47.3061 34.912 47.2729 34.9142 47.242 34.9247C47.2111 34.9353 47.1835 34.9539 47.1621 34.9786C46.1383 36.1656 44.8711 36.7104 43.3605 36.613C42.0998 36.5293 41.1977 35.9988 40.9013 34.7445C40.8977 34.7293 40.8903 34.7153 40.8799 34.7036C40.8695 34.692 40.8563 34.6831 40.8417 34.6778C40.827 34.6725 40.8112 34.6709 40.7958 34.6732C40.7803 34.6754 40.7657 34.6815 40.7531 34.6908C38.7278 36.1642 36.7776 37.1221 34.2905 36.3596C32.5637 35.8291 32.8902 32.7191 33.3111 31.4606C34.0091 29.3665 36.7368 28.2325 38.7493 28.211C41.1677 28.1852 40.9529 29.9077 40.1754 31.4691C40.1521 31.5162 40.1161 31.5558 40.0713 31.5835C40.0265 31.6112 39.9748 31.6259 39.9219 31.6259H38.1565C38.1346 31.6257 38.1132 31.6194 38.0946 31.6077C38.0761 31.596 38.0613 31.5794 38.0518 31.5599C38.0424 31.5403 38.0387 31.5186 38.0413 31.4972C38.0438 31.4758 38.0525 31.4557 38.0663 31.4391C38.4099 31.0124 38.5474 30.5299 38.4786 29.9915C38.4717 29.9376 38.4535 29.8857 38.4252 29.8393C38.3969 29.7929 38.3591 29.753 38.3143 29.7222C38.2695 29.6914 38.2187 29.6703 38.1652 29.6605C38.1118 29.6507 38.0568 29.6522 38.004 29.665C36.87 29.9356 36.051 30.5621 35.5469 31.5443C35.0122 32.5903 34.748 35.1375 36.6488 34.8411C38.3519 34.5748 39.4086 33.7909 40.6457 32.8029C40.7004 32.7594 40.7414 32.7013 40.7639 32.6354C40.887 32.2602 41.0023 31.8808 41.1097 31.4971C41.7776 29.1044 44.0865 27.4485 46.5392 27.7363C48.3627 27.9511 48.891 29.8154 48.2188 31.3703C48.1908 31.4347 48.1833 31.5059 48.1973 31.5744C48.3004 32.0655 48.2445 32.538 48.0298 32.9919C48.0229 33.0066 48.0195 33.0226 48.02 33.0388C48.0205 33.055 48.0247 33.0708 48.0325 33.0851C48.0402 33.0993 48.0512 33.1115 48.0645 33.1207C48.0779 33.1299 48.0932 33.1358 48.1092 33.138C49.1509 33.2819 51.8614 30.2299 52.1728 29.854C52.3231 29.6707 52.5358 29.2369 52.8107 28.5525C52.8222 28.5245 52.8416 28.5006 52.8664 28.4838C52.8913 28.467 52.9205 28.458 52.9503 28.458H54.6943C54.7128 28.458 54.731 28.4627 54.7472 28.4716C54.7634 28.4806 54.7771 28.4935 54.7869 28.5091C54.7968 28.5248 54.8025 28.5427 54.8036 28.5611C54.8047 28.5796 54.8011 28.5981 54.7931 28.6148L53.5323 31.4004C53.5218 31.4219 53.5191 31.4463 53.5246 31.4696C53.5301 31.4928 53.5435 31.5134 53.5625 31.5279C53.5815 31.5423 53.605 31.5497 53.6289 31.5488C53.6528 31.5479 53.6756 31.5387 53.6934 31.5228C54.5568 30.7983 55.441 30.0573 56.3459 29.2999C57.1384 28.6362 58.4915 27.8673 59.4 28.7007C59.425 28.7229 59.444 28.7511 59.4553 28.7826C59.4665 28.8142 59.4697 28.848 59.4645 28.8811C59.3249 29.839 58.7342 30.7024 58.4915 31.671C58.4743 31.7398 58.493 31.7519 58.5474 31.7075ZM43.0083 33.08C42.7935 34.927 44.617 35.2127 45.5147 33.967C45.5336 33.9402 45.545 33.9089 45.5476 33.8764C45.5503 33.8439 45.5441 33.8114 45.5298 33.7823C44.9456 32.5752 45.3987 31.772 46.3781 30.9558C46.4045 30.9348 46.4263 30.9085 46.4422 30.8786C46.4581 30.8486 46.4677 30.8157 46.4705 30.7819C46.5499 29.8218 45.461 29.6049 44.7888 30.0301C43.7636 30.6788 43.1701 31.6954 43.0083 33.08Z" fill="#0C6746"/>
  <path d="M91.3269 32.0291L90.6064 32.7421C90.4976 32.8498 90.4967 33.0252 90.6043 33.1339L91.3295 33.8667C91.4371 33.9755 91.6125 33.9764 91.7213 33.8688L92.4418 33.1557C92.5506 33.0481 92.5515 32.8727 92.4439 32.7639L91.7187 32.0311C91.6111 31.9224 91.4357 31.9214 91.3269 32.0291Z" fill="white"/>
  <path d="M82.9524 36.3981L83.8781 35.4466C83.884 35.4403 83.891 35.4352 83.8989 35.4317C83.9067 35.4282 83.9152 35.4262 83.9238 35.426C83.9324 35.4258 83.941 35.4274 83.949 35.4305C83.957 35.4337 83.9643 35.4384 83.9705 35.4445L85.0143 36.4818C85.0261 36.4939 85.0327 36.5101 85.0327 36.5269C85.0327 36.5438 85.0261 36.56 85.0143 36.5721L83.9619 37.6223C83.9557 37.6283 83.9484 37.6331 83.9404 37.6362C83.9324 37.6394 83.9238 37.6409 83.9152 37.6407C83.9066 37.6405 83.8981 37.6386 83.8903 37.6351C83.8824 37.6315 83.8754 37.6265 83.8695 37.6202L82.9696 36.6537C82.9637 36.6474 82.9567 36.6423 82.9488 36.6387C82.941 36.6352 82.9325 36.6333 82.9239 36.6331C82.9153 36.6329 82.9067 36.6344 82.8987 36.6376C82.8907 36.6407 82.8834 36.6455 82.8772 36.6515L81.9365 37.5944C81.9245 37.6062 81.9083 37.6128 81.8914 37.6128C81.8746 37.6128 81.8584 37.6062 81.8463 37.5944L80.7939 36.542C80.7877 36.536 80.7828 36.5288 80.7795 36.5209C80.7761 36.5129 80.7744 36.5044 80.7744 36.4958C80.7744 36.4872 80.7761 36.4787 80.7795 36.4707C80.7828 36.4628 80.7877 36.4556 80.7939 36.4496L81.8227 35.4638C81.8347 35.452 81.8509 35.4454 81.8678 35.4454C81.8847 35.4454 81.9009 35.452 81.9129 35.4638L82.8601 36.4002C82.8662 36.4063 82.8735 36.411 82.8815 36.4142C82.8895 36.4173 82.8981 36.4189 82.9067 36.4187C82.9153 36.4185 82.9238 36.4165 82.9316 36.413C82.9395 36.4095 82.9466 36.4044 82.9524 36.3981Z" fill="white"/>
  <path d="M13.1584 36.7828C11.151 41.1399 8.90442 45.4339 6.41873 49.665C5.60688 51.0453 4.76853 52.2853 3.9037 53.385C3.88018 53.4145 3.8504 53.4383 3.81657 53.4546C3.78273 53.471 3.74571 53.4795 3.70825 53.4795H0.0935632C-0.00952958 53.4795 -0.0274276 53.4408 0.039869 53.3635C0.503786 52.8351 1.09013 52.3498 1.48746 51.8257C5.95267 45.9473 9.4342 38.8403 12.7375 32.1586C13.2551 31.1084 14.4922 29.7574 15.7873 30.4705C16.7294 30.9902 17.0795 31.8586 16.8375 33.0757C15.9827 37.3555 15.0327 41.583 13.9875 45.7583C13.9837 45.7719 13.985 45.7863 13.991 45.7989C13.9969 45.8115 14.0073 45.8216 14.0203 45.8275C14.0332 45.8333 14.048 45.8345 14.062 45.8309C14.076 45.8273 14.0884 45.8191 14.097 45.8077C17.7568 40.696 21.7738 35.9387 26.1481 31.5358C26.9535 30.7239 29.621 29.4911 30.1924 31.2694C30.6047 32.5452 29.5545 34.5083 28.8736 35.6895C26.5347 39.7381 24.2753 43.8425 22.7783 48.2905C22.2771 49.7825 22.0008 51.3195 21.9492 52.9017C21.9478 52.9349 21.9344 52.9665 21.9115 52.9906C21.8886 53.0147 21.8578 53.0297 21.8247 53.0327C21.1052 53.0929 19.8487 53.3656 19.2022 53.0821C19.1717 53.0679 19.1442 53.0477 19.1213 53.0226C19.0985 52.9976 19.0807 52.9682 19.0691 52.9361C19.0018 52.7485 18.976 52.5538 18.9918 52.3519C19.3633 47.3455 21.9084 42.3154 24.4771 37.717C24.6862 37.3447 24.8795 36.9639 25.057 36.5744C25.0871 36.5071 25.0785 36.5014 25.0313 36.5572C20.682 41.568 16.9106 46.699 12.9887 51.8837C12.4561 52.5882 11.6872 53.1745 10.7916 52.9919C10.0678 52.8437 9.79932 52.2424 9.8659 51.5164C9.98474 50.1776 10.1745 48.952 10.4351 47.8394C11.2856 44.2069 12.227 40.5335 13.2594 36.8193C13.2637 36.806 13.2628 36.7915 13.2567 36.779C13.2506 36.7664 13.2398 36.7567 13.2266 36.7519C13.2135 36.7472 13.199 36.7477 13.1863 36.7535C13.1735 36.7593 13.1635 36.7697 13.1584 36.7828Z" fill="#0C6746"/>
  <path d="M50.9614 47.9917C50.9659 47.9828 50.9671 47.9728 50.9649 47.9633C50.9627 47.9538 50.9571 47.9453 50.9491 47.9393C50.941 47.9333 50.9311 47.9301 50.9208 47.9303C50.9106 47.9304 50.9006 47.9339 50.8927 47.9401C49.4408 49.1901 43.9618 53.4427 42.1921 50.9663C41.8541 50.4938 41.8155 49.9562 42.0761 49.3534C43.0397 47.1197 44.0513 44.944 45.1109 42.8263C45.1257 42.7967 45.1337 42.7641 45.1342 42.731C45.1348 42.6979 45.1279 42.6651 45.1141 42.635C45.1003 42.6049 45.0799 42.5783 45.0544 42.5571C45.029 42.536 44.9991 42.5208 44.967 42.5127C44.342 42.3602 44.0048 42.4418 43.5881 42.9595C41.406 45.6757 39.0477 47.9544 36.5134 49.7958C34.1787 51.4904 30.171 52.6287 27.5915 50.8418C26.5391 50.1137 26.5069 47.1798 26.5563 46.121C26.7324 42.4569 31.0065 39.9741 34.2904 39.6777C36.6637 39.4607 37.991 41.4753 37.1684 43.6381C36.1504 46.3121 32.4025 47.4912 29.8811 47.9058C29.8333 47.9136 29.7886 47.9343 29.7517 47.9656C29.7148 47.9969 29.6871 48.0377 29.6715 48.0837C29.6558 48.1297 29.6529 48.1791 29.663 48.2268C29.673 48.2745 29.6957 48.3187 29.7286 48.3546C30.5598 49.2546 31.4919 49.3963 32.6946 49.0398C36.6079 47.88 39.3377 44.8001 41.5993 41.383C41.6172 41.3551 41.6283 41.3234 41.6316 41.2906C41.635 41.2577 41.6305 41.2246 41.6186 41.194C41.5327 40.9706 41.4446 40.7508 41.3544 40.5346C40.4975 38.462 43.4335 36.7782 44.5567 38.7412C44.7672 39.1064 44.7393 39.6455 44.8682 40.0922C44.8762 40.1221 44.8936 40.1488 44.9179 40.1685C44.9422 40.1881 44.9721 40.1997 45.0035 40.2017C46.4403 40.2898 47.9352 39.508 48.4893 41.4216C48.8523 42.6716 46.3995 46.8254 45.7466 48.1205C45.7176 48.1787 45.7084 48.2447 45.7204 48.3083C45.7325 48.372 45.7651 48.4298 45.8132 48.4728C46.4876 49.0741 50.302 45.6141 50.839 45.1652C52.1921 44.0333 53.9103 42.3087 54.5224 40.5389C54.6727 40.1051 54.8317 40.1566 55.229 40.1631C56.0151 40.1759 56.8012 40.1666 57.5872 40.1351C57.5978 40.1349 57.6082 40.1374 57.6175 40.1423C57.6268 40.1472 57.6348 40.1544 57.6406 40.1632C57.6464 40.172 57.6498 40.1821 57.6506 40.1926C57.6514 40.2031 57.6496 40.2136 57.6452 40.2232C56.9766 41.6908 56.3007 43.1578 55.6177 44.624C55.5719 44.7228 55.5519 44.8073 55.5576 44.8774C55.5597 44.9 55.5679 44.9217 55.5813 44.94C55.5946 44.9584 55.6127 44.9728 55.6335 44.9818C55.6544 44.9909 55.6773 44.9941 55.6998 44.9912C55.7224 44.9883 55.7437 44.9794 55.7616 44.9655C57.6402 43.4363 59.5811 42.0016 61.5842 40.6613C63.2767 39.5273 66.1847 39.4414 64.6512 42.5986C63.7964 44.3555 62.4562 46.4217 61.9665 48.2838C61.9547 48.3299 61.9565 48.3786 61.9715 48.4239C61.9866 48.4691 62.0143 48.5091 62.0513 48.5388C62.0883 48.5686 62.1331 48.5869 62.1802 48.5916C62.2273 48.5962 62.2747 48.587 62.3166 48.5651C63.6769 47.8678 64.9312 47.0101 66.0795 45.9921C66.1354 45.9433 66.1745 45.8787 66.1912 45.8074C66.9923 42.6223 70.3235 40.6957 73.3261 40.0342C74.7586 39.7163 76.3995 39.8237 77.9008 39.944C77.9769 39.95 78.0484 39.9831 78.1023 40.0374C78.1563 40.0918 78.1892 40.1638 78.1951 40.2404L78.3518 42.343C78.3549 42.3821 78.3475 42.4213 78.3304 42.4566C78.3133 42.4919 78.2871 42.5221 78.2546 42.5439C78.222 42.5658 78.1842 42.5786 78.1451 42.581C78.1059 42.5835 78.0669 42.5755 78.0318 42.5578C76.9451 42.0152 75.8089 41.872 74.6233 42.1283C71.7947 42.7404 68.8673 44.6347 69.2131 47.9208C69.4708 50.3692 72.1813 47.8843 72.7741 47.2335C73.5358 46.4016 74.3105 45.2418 75.098 43.7541C75.1115 43.7284 75.1332 43.7079 75.1596 43.6959C75.186 43.6838 75.2157 43.6809 75.244 43.6875C76.0902 43.878 76.9508 43.9345 77.8256 43.8572C77.8421 43.8557 77.8587 43.8586 77.8737 43.8655C77.8887 43.8724 77.9016 43.8832 77.9111 43.8967C77.9207 43.9101 77.9266 43.9259 77.9281 43.9423C77.9297 43.9588 77.927 43.9753 77.9201 43.9904C77.4075 45.1058 76.8749 46.2262 76.3222 47.3516C76.1175 47.7683 76.0022 48.0969 75.9764 48.3375C75.9335 48.7269 76.0809 48.8214 76.4189 48.621C77.7347 47.8363 78.9647 46.9343 80.1087 45.9148C80.1288 45.8965 80.1529 45.8834 80.1792 45.8766C80.2054 45.8698 80.2329 45.8694 80.2593 45.8755C80.2857 45.8817 80.3102 45.8941 80.3307 45.9118C80.3513 45.9295 80.3672 45.9519 80.3772 45.9771C81.0731 47.7125 80.3321 48.651 78.8845 49.639C77.2844 50.7322 75.5426 51.9049 73.7556 51.6472C72.9781 51.5333 73.0812 50.8933 72.9567 50.3113C72.9409 50.2397 72.9073 50.2289 72.8557 50.279C70.7573 52.2958 66.9279 52.4139 66.1633 49.0097C66.1606 48.9977 66.1552 48.9864 66.1473 48.9769C66.1394 48.9674 66.1294 48.9599 66.118 48.9551C66.1067 48.9502 66.0943 48.9482 66.082 48.9491C66.0697 48.95 66.0578 48.9539 66.0473 48.9603C64.2646 50.002 61.4554 52.1583 59.3269 51.587C56.5005 50.8267 60.9163 45.468 60.6414 44.4951C60.6379 44.4831 60.6316 44.4721 60.623 44.4631C60.6144 44.4541 60.6037 44.4473 60.5919 44.4432C60.5801 44.4392 60.5675 44.4382 60.5551 44.4401C60.5428 44.442 60.5311 44.4469 60.5211 44.4543C57.2973 46.7975 54.5052 49.3748 52.0138 51.3894C51.5134 51.7954 50.6435 51.9092 50.2741 51.2584C49.8467 50.511 50.6134 48.7133 50.9614 47.9917ZM34.357 42.9702C34.3892 42.4375 33.6397 41.9135 33.2015 42.0724C31.5563 42.6681 30.3564 43.8136 29.6019 45.5089C29.5374 45.6549 29.584 45.7179 29.7415 45.6979C30.8948 45.5475 34.2711 44.4049 34.357 42.9702Z" fill="#0C6746"/>
</svg>